IKResults
version=1
nRows=7
nColumns=40
inDegrees=yes

Units are S.I. units (second, meters, Newtons, ...)
If the header above contains a line with 'inDegrees', this indicates whether rotational values are in degrees (yes) or radians (no).

endheader
time	pelvis_tilt	pelvis_list	pelvis_rotation	pelvis_tx	pelvis_ty	pelvis_tz	hip_flexion_r	hip_adduction_r	hip_rotation_r	knee_angle_r	knee_angle_r_beta	ankle_angle_r	subtalar_angle_r	mtp_angle_r	hip_flexion_l	hip_adduction_l	hip_rotation_l	knee_angle_l	knee_angle_l_beta	ankle_angle_l	subtalar_angle_l	mtp_angle_l	lumbar_extension	lumbar_bending	lumbar_rotation	arm_flex_r	arm_add_r	arm_rot_r	elbow_flex_r	pro_sup_r	wrist_flex_r	wrist_dev_r	arm_flex_l	arm_add_l	arm_rot_l	elbow_flex_l	pro_sup_l	wrist_flex_l	wrist_dev_l
      1.03000000	     -3.78365146	     -2.43999874	     10.98393027	     -1.57644614	      1.00143686	      0.22118913	     33.89183188	     -4.98831768	    -13.49726013	     26.30621200	      0.45913001	     -1.53143243	     -1.61467883	      0.00000000	     -5.72339485	     -7.28059219	      1.99387518	     39.91882853	      0.69671499	      2.74034743	     13.80897737	      0.00000000	     -9.95440262	      7.06995665	     -9.46883735	    -11.03433966	    -10.74907595	     11.23425771	     30.07346906	     75.55531712	      0.00000000	      0.00000000	     -1.92831844	    -11.61698920	     -0.01853943	     42.04413248	     72.93212658	      0.00000000	      0.00000000
      1.04000000	     -3.75970587	     -2.98882551	     10.71061711	     -1.56103784	      1.00381401	      0.22301076	     33.21291556	     -4.06799489	    -13.46253119	     26.59761489	      0.46421595	     -1.01311884	     -1.63693476	      0.00000000	     -4.09590495	     -8.38500872	      0.91484386	     42.81816370	      0.74731794	     -1.66805111	     12.81332200	      0.00000000	     -9.76091175	      7.78333659	     -9.15357528	    -10.83285285	    -10.91710573	     11.28266837	     30.04487771	     75.77554978	      0.00000000	      0.00000000	     -2.66633883	    -11.05821168	     -0.41153361	     41.02698057	     72.98744747	      0.00000000	      0.00000000
      1.05000000	     -3.90664723	     -3.67599000	     10.78569513	     -1.54632270	      1.00594662	      0.22440813	     32.58905710	     -3.08991845	    -13.49546194	     26.62244705	      0.46464936	     -0.56829179	     -2.25858236	      0.00000000	     -1.92305690	     -9.46221262	      0.61851334	     45.85914916	      0.80039315	     -6.24502997	     10.88638638	      0.00000000	     -9.38780784	      8.65312238	     -9.31314798	    -10.53531604	    -11.12247792	     11.28817230	     30.14429889	     76.47893143	      0.00000000	      0.00000000	     -3.52621075	    -10.52092872	     -0.69774113	     40.05754409	     73.03570542	      0.00000000	      0.00000000
      1.06000000	     -3.82900113	     -4.14067786	     10.76309359	     -1.53144627	      1.00837533	      0.22611230	     31.66632723	     -2.16010946	    -13.30103758	     26.58481154	      0.46399249	      0.10056430	     -2.87903394	      0.00000000	     -0.20308997	    -10.33928465	      0.21001047	     48.35838663	      0.84401307	    -11.60802194	      8.59172307	      0.00000000	     -9.31142886	      9.27049150	     -9.36122955	    -10.25483076	    -11.24761395	     11.21707216	     30.36864201	     76.96053681	      0.00000000	      0.00000000	     -4.33937824	    -10.15032659	     -0.75914899	     39.15231911	     72.95425127	      0.00000000	      0.00000000
      1.07000000	     -3.81764047	     -4.55304214	     10.85366219	     -1.51711525	      1.01076799	      0.22769220	     30.71965310	     -1.30815711	    -13.06350448	     26.34328215	      0.45977701	      0.71053475	     -3.62222018	      0.00000000	      1.69457676	    -11.02654859	      0.12097123	     50.64346521	      0.88389521	    -17.11107003	      5.88479949	      0.00000000	     -9.20371709	      9.80459510	     -9.51175538	     -9.94333891	    -11.36569502	     11.17634129	     30.67234508	     77.38582599	      0.00000000	      0.00000000	     -5.06029186	     -9.87645624	     -0.52812116	     38.22994045	     72.80859594	      0.00000000	      0.00000000
      1.08000000	     -3.68801265	     -4.91439725	     10.92183870	     -1.50294658	      1.01331125	      0.22939419	     29.66628609	     -0.46602248	    -12.78685276	     26.13577875	      0.45615539	      1.47820327	     -4.20854212	      0.00000000	      3.43860381	    -11.74770852	     -0.14358395	     52.74460969	      0.92056710	    -22.20123786	      3.21630859	      0.00000000	     -9.26312522	     10.27180262	     -9.60032758	     -9.60195262	    -11.46846964	     11.23368811	     31.01825844	     77.60158000	      0.00000000	      0.00000000	     -5.72763910	     -9.70035937	     -0.14300217	     37.41551779	     72.80625708	      0.00000000	      0.00000000
      1.09000000	     -3.68118890	     -5.02958624	     11.06987892	     -1.48959627	      1.01582126	      0.23069183	     28.75659130	      0.06850107	    -12.40013567	     25.91426753	      0.45228929	      1.80374354	     -5.23242482	      0.00000000	      5.35896789	    -11.86869449	      0.05665182	     54.86804203	      0.95762799	    -24.94964193	      0.11912805	      0.00000000	     -9.28961623	     10.46516647	     -9.79590661	     -9.19454176	    -11.55580868	     11.26989280	     31.30997307	     78.15122923	      0.00000000	      0.00000000	     -6.25355988	     -9.60597352	      0.68736260	     36.44592835	     72.49900103	      0.00000000	      0.00000000
